<svg version="1.1" viewBox="0.0 0.0 50.0 50.0" fill="none" stroke="none" stroke-linecap="square" stroke-miterlimit="10" xmlns:xlink="http://www.w3.org/1999/xlink" xmlns="http://www.w3.org/2000/svg"><clipPath id="p.0"><path d="m0 0l50.0 0l0 50.0l-50.0 0l0 -50.0z" clip-rule="nonzero"/></clipPath><g clip-path="url(#p.0)"><path fill="#000000" fill-opacity="0.0" d="m0 0l50.0 0l0 50.0l-50.0 0z" fill-rule="evenodd"/><path fill="#ffffff" d="m1.0 25.0l0 0c0 -13.254834 10.745166 -24.0 24.0 -24.0l0 0c6.365196 0 12.469688 2.5285642 16.970562 7.029437c4.5008736 4.5008736 7.029438 10.605367 7.029438 16.970562l0 0c0 13.254833 -10.745167 24.0 -24.0 24.0l0 0c-13.254834 0 -24.0 -10.745167 -24.0 -24.0z" fill-rule="evenodd"/><path fill="#ffffff" d="m10.354331 17.837313l0 0c0 -1.8801107 1.5241308 -3.4042416 3.4042416 -3.4042416l22.482857 0c0.90285873 0 1.7687416 0.35865974 2.4071617 0.9970789c0.6384201 0.63841915 0.99707794 1.504302 0.99707794 2.4071627l0 14.325373c0 1.8801117 -1.524128 3.4042435 -3.4042397 3.4042435l-22.482857 0c-1.8801107 0 -3.4042416 -1.5241318 -3.4042416 -3.4042435z" fill-rule="evenodd"/><path stroke="#000000" stroke-width="2.0" stroke-linejoin="round" stroke-linecap="butt" d="m10.354331 17.837313l0 0c0 -1.8801107 1.5241308 -3.4042416 3.4042416 -3.4042416l22.482857 0c0.90285873 0 1.7687416 0.35865974 2.4071617 0.9970789c0.6384201 0.63841915 0.99707794 1.504302 0.99707794 2.4071627l0 14.325373c0 1.8801117 -1.524128 3.4042435 -3.4042397 3.4042435l-22.482857 0c-1.8801107 0 -3.4042416 -1.5241318 -3.4042416 -3.4042435z" fill-rule="evenodd"/><path fill="#ffffff" d="m13.07874 32.874016l11.92126 -14.519686l11.921261 14.519686z" fill-rule="evenodd"/><path stroke="#000000" stroke-width="2.0" stroke-linejoin="round" stroke-linecap="butt" d="m13.07874 32.874016l11.92126 -14.519686l11.921261 14.519686z" fill-rule="evenodd"/><path fill="#ffffff" d="m36.92126 17.026247l-11.921261 13.291338l-11.92126 -13.291338z" fill-rule="evenodd"/><path stroke="#000000" stroke-width="2.0" stroke-linejoin="round" stroke-linecap="butt" d="m36.92126 17.026247l-11.921261 13.291338l-11.92126 -13.291338z" fill-rule="evenodd"/><path fill="#ffffff" d="m15.803149 15.8661375l18.3937 0l0 2.4881887l-18.3937 0z" fill-rule="evenodd"/><path fill="#000000" fill-opacity="0.0" d="m13.945867 15.741141l6.9921255 7.7480326" fill-rule="evenodd"/><path stroke="#ffffff" stroke-width="1.0" stroke-linejoin="round" stroke-linecap="butt" d="m13.945867 15.741141l6.9921255 7.7480326" fill-rule="evenodd"/><path fill="#000000" fill-opacity="0.0" d="m30.973917 28.20177l5.1968517 6.015747" fill-rule="evenodd"/><path stroke="#ffffff" stroke-width="1.0" stroke-linejoin="round" stroke-linecap="butt" d="m30.973917 28.20177l5.1968517 6.015747" fill-rule="evenodd"/><path fill="#000000" fill-opacity="0.0" d="m13.757381 34.224247l6.2047253 -7.0236244" fill-rule="evenodd"/><path stroke="#ffffff" stroke-width="1.0" stroke-linejoin="round" stroke-linecap="butt" d="m13.757381 34.224247l6.2047253 -7.0236244" fill-rule="evenodd"/><path fill="#000000" fill-opacity="0.0" d="m28.43832 24.0625l7.6850395 -8.283464" fill-rule="evenodd"/><path stroke="#ffffff" stroke-width="1.0" stroke-linejoin="round" stroke-linecap="butt" d="m28.43832 24.0625l7.6850395 -8.283464" fill-rule="evenodd"/><path fill="#ffffff" d="m15.803149 31.501308l18.3937 0l0 2.4881897l-18.3937 0z" fill-rule="evenodd"/><path fill="#000000" fill-opacity="0.0" d="m15.1952095 15.741141l6.9921265 7.7480326" fill-rule="evenodd"/><path stroke="#ffffff" stroke-width="1.0" stroke-linejoin="round" stroke-linecap="butt" d="m15.1952095 15.741141l6.9921265 7.7480326" fill-rule="evenodd"/><path fill="#000000" fill-opacity="0.0" d="m14.775427 34.224247l4.9763775 -5.354332" fill-rule="evenodd"/><path stroke="#ffffff" stroke-width="1.0" stroke-linejoin="round" stroke-linecap="butt" d="m14.775427 34.224247l4.9763775 -5.354332" fill-rule="evenodd"/><path fill="#000000" fill-opacity="0.0" d="m29.786417 28.13927l5.1968517 6.015747" fill-rule="evenodd"/><path stroke="#ffffff" stroke-width="1.0" stroke-linejoin="round" stroke-linecap="butt" d="m29.786417 28.13927l5.1968517 6.015747" fill-rule="evenodd"/><path fill="#000000" fill-opacity="0.0" d="m27.374016 24.12582l7.6850395 -8.283464" fill-rule="evenodd"/><path stroke="#ffffff" stroke-width="1.0" stroke-linejoin="round" stroke-linecap="butt" d="m27.374016 24.12582l7.6850395 -8.283464" fill-rule="evenodd"/></g></svg>
